<svg width="216" height="67" viewBox="0 0 216 67" fill="none" xmlns="http://www.w3.org/2000/svg">
<g clip-path="url(#clip0_1502_190)">
<path d="M208.656 4.00973C208.656 3.50056 208.747 3.02776 208.939 2.58223C209.13 2.13671 209.395 1.74574 209.723 1.40932C210.052 1.0729 210.444 0.809224 210.882 0.609192C211.32 0.418253 211.803 0.318237 212.305 0.318237C212.807 0.318237 213.29 0.418253 213.737 0.609192C214.185 0.800132 214.577 1.06381 214.905 1.40932C215.234 1.74574 215.498 2.13671 215.69 2.58223C215.881 3.02776 215.982 3.50965 215.982 4.00973C215.982 4.50981 215.881 4.9917 215.69 5.44632C215.498 5.90094 215.234 6.29191 214.905 6.61923C214.577 6.95565 214.185 7.21933 213.737 7.41936C213.29 7.61939 212.807 7.71031 212.305 7.71031C211.803 7.71031 211.32 7.6103 210.882 7.41936C210.444 7.21933 210.052 6.95565 209.723 6.61923C209.395 6.28282 209.13 5.89184 208.939 5.44632C208.747 4.9917 208.656 4.5189 208.656 4.00973ZM209.44 4.00973C209.44 4.42798 209.513 4.81895 209.659 5.18264C209.805 5.54634 210.015 5.86457 210.271 6.12825C210.535 6.39192 210.836 6.60105 211.183 6.75562C211.53 6.91019 211.904 6.98293 212.305 6.98293C212.707 6.98293 213.081 6.91019 213.427 6.75562C213.774 6.60105 214.084 6.39192 214.34 6.12825C214.604 5.86457 214.805 5.55543 214.951 5.18264C215.097 4.81895 215.17 4.42798 215.17 4.00973C215.17 3.59148 215.097 3.20051 214.951 2.83682C214.805 2.47312 214.595 2.16398 214.34 1.89121C214.075 1.62753 213.774 1.41841 213.427 1.26384C213.081 1.10927 212.707 1.03653 212.305 1.03653C211.904 1.03653 211.53 1.10927 211.183 1.26384C210.836 1.41841 210.526 1.61844 210.271 1.89121C210.006 2.15489 209.805 2.47312 209.659 2.83682C209.513 3.20051 209.44 3.59148 209.44 4.00973ZM211.849 5.99186H211.083V1.96395H212.478C212.67 1.96395 212.853 1.99123 213.017 2.05488C213.181 2.11852 213.327 2.20944 213.446 2.31855C213.564 2.42766 213.664 2.56405 213.728 2.71862C213.801 2.87319 213.838 3.03685 213.838 3.2187C213.838 3.50056 213.756 3.74605 213.592 3.96427C213.427 4.18248 213.217 4.32796 212.953 4.41888L213.856 5.99186H212.98L212.132 4.49162H211.831V5.99186H211.849ZM212.369 3.82788C212.597 3.82788 212.77 3.77333 212.889 3.67331C213.008 3.5733 213.071 3.42782 213.071 3.23688C213.071 2.82772 212.834 2.62769 212.369 2.62769H211.849V3.82788H212.369Z" fill="#00C4FF"/>
<path d="M43.6908 52.2628C43.6908 52.8084 43.2438 53.2448 42.7055 53.2448H34.741C34.1936 53.2448 33.7557 52.7993 33.7557 52.2628V21.958C33.7557 18.6757 32.5971 15.8843 30.2798 13.6113C27.9625 11.2654 25.1526 10.0925 21.8591 10.0925C18.5565 10.0925 15.7557 11.2654 13.4293 13.6113C11.112 15.8934 9.95337 18.6757 9.95337 21.958V52.2628C9.95337 52.8084 9.50634 53.2448 8.96807 53.2448H0.985302C0.437912 53.2448 0 52.7993 0 52.2628V1.8094C0 1.26386 0.447035 0.818333 0.985302 0.818333H8.94982C9.49721 0.818333 9.93512 1.26386 9.93512 1.80031V3.64605C13.4749 1.30932 17.4344 0.154592 21.85 0.181869C27.8621 0.181869 33.0167 2.30038 37.332 6.52832C41.5742 10.8199 43.7 15.9662 43.7 21.958V52.2628H43.6908Z" fill="#00C4FF"/>
<path d="M110.673 21.958C110.673 15.9753 112.799 10.829 117.041 6.52832C121.356 2.30038 126.511 0.181863 132.523 0.181863C136.93 0.145494 140.898 1.30022 144.429 3.64605V1.80939C144.429 1.26385 144.876 0.82742 145.414 0.82742H153.379C153.926 0.82742 154.364 1.27294 154.364 1.80939V52.2719C154.364 52.8174 153.917 53.2539 153.379 53.2539H145.414C144.867 53.2539 144.429 52.8084 144.429 52.2719V21.958C144.429 18.6757 143.27 15.8843 140.953 13.6113C138.636 11.2654 135.826 10.0925 132.523 10.0925C129.22 10.0925 126.42 11.2654 124.102 13.6113C121.785 15.8934 120.626 18.6757 120.626 21.958V52.2628C120.626 52.8084 120.179 53.2448 119.641 53.2448H111.677C111.129 53.2448 110.691 52.7993 110.691 52.2628V21.958H110.673Z" fill="#00C4FF"/>
<path d="M76.0963 5.91408e-05C60.8515 -0.199972 48.4714 12.202 48.7633 27.4135C49.0461 41.7339 60.7694 53.4358 75.1384 53.7358C81.114 53.8631 86.6609 52.0446 91.186 48.8805C91.8429 48.4168 92.7461 48.8805 92.7461 49.6806V52.2538C92.7461 52.7993 93.1931 53.2357 93.7314 53.2357H101.696C102.243 53.2357 102.681 52.7902 102.681 52.2538V27.2225C102.681 12.4657 90.8941 0.181906 76.0872 -0.0090332L76.0963 5.91408e-05ZM75.7314 43.8706C66.0882 43.8706 58.3153 35.8966 58.6893 26.2042C59.0269 17.3937 66.225 10.2108 75.0745 9.88344C84.7998 9.51974 92.8008 17.2664 92.8008 26.8679H92.7643V27.9226C92.2169 36.8241 84.8089 43.8706 75.7405 43.8706H75.7314Z" fill="#00C4FF"/>
<path d="M206.028 8.04676C200.746 2.80957 194.387 0.181885 186.979 0.181885C179.571 0.181885 173.167 2.80048 167.875 8.03767C167.866 8.04676 167.848 8.06495 167.839 8.07404C167.401 8.51956 167.875 9.26514 168.468 9.04692C169.819 8.53775 171.278 8.25589 172.811 8.25589C175.493 8.25589 177.975 9.11057 180 10.5653C180.52 10.9381 181.177 11.0563 181.797 10.8654C183.421 10.3562 185.145 10.0925 186.988 10.0925C191.687 10.0925 195.692 11.7564 198.985 15.0751C202.315 18.3666 203.985 22.349 203.985 27.0316C203.985 31.7141 202.315 35.7239 198.985 39.0426C195.683 42.3613 191.687 44.0252 186.988 44.0252C182.29 44.0252 178.285 42.3613 174.991 39.0426C171.625 35.7239 169.946 31.7232 169.946 27.0316C169.946 24.7312 170.357 22.5945 171.169 20.6306C171.424 20.185 174.909 14.3114 179.58 14.8115C180.21 14.8751 180.52 14.0932 180.009 13.7204C177.82 12.1474 174.298 10.5017 169.974 11.6019C163.852 13.1567 161.599 17.6574 160.768 20.5396H160.741C160.695 20.7215 160.668 20.9033 160.632 21.0852C160.467 21.7398 160.385 22.2854 160.349 22.6309C160.13 24.0584 160.002 25.5132 160.002 27.0316C160.002 34.4509 162.629 40.7974 167.884 46.0709C173.176 51.3081 179.544 53.9267 186.988 53.9267C194.433 53.9267 200.755 51.3081 206.047 46.0709C211.302 40.7974 213.929 34.4509 213.929 27.0316C213.929 19.6122 211.302 13.3112 206.047 8.03767L206.028 8.04676Z" fill="#00C4FF"/>
</g>
<defs>
<clipPath id="clip0_1502_190">
<rect width="216" height="66.8287" fill="white"/>
</clipPath>
</defs>
</svg>
